Coordinates
version=1
nRows=12
nColumns=38
inDegrees=yes

Units are S.I. units (second, meters, Newtons, ...)
Angles are in degrees.

endheader
time	pelvis_tilt	pelvis_list	pelvis_rotation	pelvis_tx	pelvis_ty	pelvis_tz	hip_flexion_r	hip_adduction_r	hip_rotation_r	knee_angle_r	ankle_angle_r	subtalar_angle_r	mtp_angle_r	hip_flexion_l	hip_adduction_l	hip_rotation_l	knee_angle_l	ankle_angle_l	subtalar_angle_l	mtp_angle_l	lumbar_extension	lumbar_bending	lumbar_rotation	arm_flex_r	arm_add_r	arm_rot_r	elbow_flex_r	pro_sup_r	wrist_flex_r	wrist_dev_r	arm_flex_l	arm_add_l	arm_rot_l	elbow_flex_l	pro_sup_l	wrist_flex_l	wrist_dev_l
      1.70000000	      4.94741610	     -0.57900769	      1.46309925	      0.32280731	      1.00808867	     -0.23853239	     -5.33792076	      5.99497518	      3.18571486	    -12.98478027	      7.86799767	    -11.48885755	      0.00000000	     17.75865369	     -1.29546816	     -0.40554336	    -40.36596137	      5.97825094	     -6.80244756	      0.00000000	    -19.82868719	      2.21330895	      1.61526946	     -2.36788769	     -7.10798300	     22.86750572	     52.92699065	     42.71994774	      0.00000000	      0.00000000	     -4.15422020	    -11.24250664	     29.26449596	     49.75929894	     42.71994774	      0.00000000	      0.00000000
      1.71000000	      4.94580749	     -0.72061460	      1.28674249	      0.33643654	      1.00730033	     -0.23848227	     -6.71146285	      6.09018378	      2.94118976	    -11.90124755	      8.25999101	    -11.14608059	      0.00000000	     17.96109964	     -1.36301646	      0.15796489	    -36.80444298	      5.57234648	     -6.97259246	      0.00000000	    -19.80514794	      2.24593536	      2.02446512	     -2.41722807	     -7.58367569	     22.52097165	     55.52941287	     42.79104448	      0.00000000	      0.00000000	     -4.86348650	    -11.39373803	     28.92698384	     49.13939735	     42.79104448	      0.00000000	      0.00000000
      1.72000000	      4.91401483	     -0.90850697	      1.13551136	      0.35011550	      1.00608494	     -0.23850752	     -8.20139987	      6.30949629	      3.52640896	    -10.66932950	      8.16643099	    -11.58253147	      0.00000000	     18.19290256	     -1.53919383	      0.62714787	    -33.22813954	      4.99728239	     -7.23467830	      0.00000000	    -19.73839005	      2.34603271	      2.37649046	     -2.60815698	     -8.01278647	     21.84092838	     58.21282451	     42.88574126	      0.00000000	      0.00000000	     -5.62791356	    -11.51272737	     28.59397193	     48.62979005	     42.88574126	      0.00000000	      0.00000000
      1.73000000	      4.98458715	     -1.12551357	      1.01858498	      0.36404408	      1.00470103	     -0.23850679	     -9.74116406	      6.49118162	      3.34528310	     -9.48219436	      8.40250988	    -11.34901197	      0.00000000	     18.29115315	     -1.83233075	      0.87429431	    -29.71400193	      4.63521638	     -7.16654752	      0.00000000	    -19.74175731	      2.45918377	      2.61454100	     -2.12565233	     -8.18723570	     21.63607933	     58.98547357	     42.90596625	      0.00000000	      0.00000000	     -6.45713211	    -11.78953553	     28.56189235	     48.29574792	     42.90596625	      0.00000000	      0.00000000
      1.74000000	      5.11466703	     -1.35101411	      0.92974104	      0.37807101	      1.00303772	     -0.23868762	    -11.34091306	      6.71556310	      3.55927382	     -8.40511468	      8.49107858	    -11.46942569	      0.00000000	     18.24251230	     -2.01441231	      1.54489156	    -26.16682842	      3.85944875	     -7.87455620	      0.00000000	    -19.82738626	      2.62402449	      3.02256178	     -2.75420709	     -8.69763334	     20.52173925	     62.91848362	     43.08420592	      0.00000000	      0.00000000	     -7.04489255	    -11.83877481	     28.03610469	     47.75107916	     43.08420592	      0.00000000	      0.00000000
      1.75000000	      5.20322205	     -1.54605572	      0.85938167	      0.39219874	      1.00113284	     -0.23888954	    -12.83861136	      6.89225919	      3.46505168	     -7.41959611	      8.66947112	    -11.32003305	      0.00000000	     18.26964426	     -2.21882229	      2.04585630	    -22.81702987	      2.64984349	     -8.62240009	      0.00000000	    -19.83865177	      2.73600223	      3.26951197	     -2.51106621	     -9.01109209	     20.36070459	     64.24957665	     43.14523811	      0.00000000	      0.00000000	     -7.75263833	    -12.05347724	     27.92790744	     47.38755011	     43.14523811	      0.00000000	      0.00000000
      1.76000000	      5.25059193	     -1.69534870	      0.78823101	      0.40639440	      0.99892939	     -0.23906800	    -14.23758716	      7.05170854	      3.15093839	     -6.55310486	      8.92744333	    -11.19721035	      0.00000000	     18.45026338	     -2.52544752	      1.69933171	    -19.84192670	      1.54979492	     -8.40979507	      0.00000000	    -19.78101823	      2.78475344	      3.43935097	     -2.08383205	     -9.21592559	     20.30769265	     65.01928806	     43.16267256	      0.00000000	      0.00000000	     -8.50478251	    -12.31983544	     27.89689414	     47.03939210	     43.16267256	      0.00000000	      0.00000000
      1.77000000	      5.13511251	     -2.03276532	      0.74448529	      0.42056413	      0.99643855	     -0.23921245	    -15.32699875	      7.38397742	      3.10387629	     -5.99671072	      9.15573141	    -10.96437617	      0.00000000	     18.85543814	     -2.98388122	      1.37929345	    -17.19962671	      0.61313998	     -8.09969003	      0.00000000	    -19.54781946	      3.04135088	      3.69220807	     -1.73935997	     -9.43834443	     20.26352983	     65.55398862	     43.17024371	      0.00000000	      0.00000000	     -9.09873027	    -12.57794089	     27.86187986	     46.75597629	     43.17024371	      0.00000000	      0.00000000
      1.78000000	      5.34266076	     -2.20371929	      0.67266280	      0.43487594	      0.99438060	     -0.23960424	    -16.80771412	      7.49097000	      2.96205003	     -5.32103076	      9.27856090	    -10.64526706	      0.00000000	     18.83906031	     -3.14784696	      1.21826979	    -14.74997984	     -0.42854299	     -8.54014710	      0.00000000	    -19.71476062	      3.15266073	      4.00464438	     -2.17207533	    -10.43940582	     20.63133747	     69.56341717	     43.24647620	      0.00000000	      0.00000000	     -9.51926375	    -12.46292864	     27.31569924	     45.63109023	     43.24647620	      0.00000000	      0.00000000
      1.79000000	      5.18995228	     -2.47568832	      0.38914573	      0.44869581	      0.99186052	     -0.23967204	    -17.61131420	      7.65069565	      3.17851938	     -5.23684709	      9.50424984	    -10.38527853	      0.00000000	     19.29488807	     -3.46662850	      0.66630870	    -12.82186196	     -1.07116948	     -8.28266259	      0.00000000	    -19.50944772	      3.29565017	      4.44188827	     -1.73446721	    -10.63231580	     20.49027152	     69.91177248	     43.25373858	      0.00000000	      0.00000000	    -10.04528328	    -12.65551862	     27.26500148	     45.34288714	     43.25373858	      0.00000000	      0.00000000
      1.80000000	      5.39044263	     -2.56236690	      0.09398620	      0.46294710	      0.99001976	     -0.23982840	    -18.74895606	      7.56885994	      3.18011926	     -5.24898300	      9.79263900	     -9.72970947	      0.00000000	     19.25570387	     -3.55326866	     -0.09298731	    -11.09865402	     -1.68663902	     -7.81197761	      0.00000000	    -19.68522496	      3.23494634	      4.99359860	     -2.00902727	    -11.28760724	     20.44885858	     72.56958976	     43.31827808	      0.00000000	      0.00000000	    -10.20746777	    -12.17162686	     26.16035291	     43.68206861	     43.31827808	      0.00000000	      0.00000000
      1.81000000	      5.35077698	     -2.74800685	     -0.30279014	      0.47707574	      0.98813601	     -0.23980070	    -19.43166932	      7.55038054	      3.61776494	     -5.63296502	      9.96682285	     -9.38277767	      0.00000000	     19.38160102	     -3.73590819	     -0.42497403	     -9.66278827	     -2.36998074	     -7.36085145	      0.00000000	    -19.57584433	      3.23869230	      5.55425530	     -1.68383443	    -11.51755409	     20.29006009	     72.88271133	     43.32688571	      0.00000000	      0.00000000	    -10.59913238	    -12.28270259	     26.03550736	     43.33411074	     43.32688571	      0.00000000	      0.00000000
